<?xml version="1.0" standalone="no"?>
<!DOCTYPE svg PUBLIC "-//W3C//DTD SVG 1.1//EN"
"http://www.w3.org/Graphics/SVG/1.1/DTD/svg11.dtd">
<svg height="600" version="1.1" width="800" xmlns="http://www.w3.org/2000/svg"><g><rect fill="#f9f9f9" height="600" width="800" x="0" y="0" /><g transform="translate(40 40)"><g transform="translate(128 0)"><text fill="#333" font-family="Monaco" font-size="16" x="0" y="0">Checks Processed by CheckIt</text></g><g transform="translate(0 20)"><g transform="translate(128 0)"><g class="axis bottom"><g class="tick"><line stroke="#eee" stroke-width="1" x1="148.00" x2="148.00" y1="0" y2="482.0" /><text dy="1em" fill="#9c9c9c" font-family="Monaco" text-anchor="middle" x="148.00" y="486.0">0.25</text></g><g class="tick"><line stroke="#eee" stroke-width="1" x1="296.0" x2="296.0" y1="0" y2="482.0" /><text dy="1em" fill="#9c9c9c" font-family="Monaco" text-anchor="middle" x="296.0" y="486.0">0.5</text></g><g class="tick"><line stroke="#eee" stroke-width="1" x1="444.00" x2="444.00" y1="0" y2="482.0" /><text dy="1em" fill="#9c9c9c" font-family="Monaco" text-anchor="middle" x="444.00" y="486.0">0.75</text></g><g class="tick"><line stroke="#eee" stroke-width="1" x1="592" x2="592" y1="0" y2="482.0" /><text dy="1em" fill="#9c9c9c" font-family="Monaco" text-anchor="middle" x="592" y="486.0">1</text></g><g class="tick"><line stroke="#a8a8a8" stroke-width="1" x1="0" x2="0" y1="0" y2="482.0" /><text dy="1em" fill="#9c9c9c" font-family="Monaco" text-anchor="middle" x="0" y="486.0">0</text></g></g><g class="axis left"><g class="tick"><line stroke="#eee" stroke-width="1" x1="-4" x2="592.0" y1="358.5" y2="358.5" /><text dy="0.32em" fill="#9c9c9c" font-family="Monaco" text-anchor="end" x="-8" y="358.5">Checks Not Paid</text></g><g class="tick"><line stroke="#eee" stroke-width="1" x1="-4" x2="592.0" y1="119.5" y2="119.5" /><text dy="0.32em" fill="#9c9c9c" font-family="Monaco" text-anchor="end" x="-8" y="119.5">Checks Paid</text></g></g><g><g class="series bars"><rect fill="#e41a1c" height="215.10" width="592" x="0" y="250.95" /><rect fill="#e41a1c" height="215.10" width="0" x="0" y="11.95" /></g></g></g></g></g></g></svg>